<svg version="1.2" baseProfile="tiny-ps" xmlns="http://www.w3.org/2000/svg" viewBox="0 0 18 14" width="18" height="14">
	<title>Layer</title>
	<style>
		tspan { white-space:pre }
		.s0 { fill: #ffffff } 
	</style>
	<path id="Layer" class="s0" d="m1 0h16c0.27 0 0.52 0.11 0.71 0.29c0.19 0.19 0.29 0.44 0.29 0.71c0 0.27-0.11 0.52-0.29 0.71c-0.19 0.19-0.44 0.29-0.71 0.29h-16c-0.27 0-0.52-0.11-0.71-0.29c-0.19-0.19-0.29-0.44-0.29-0.71c0-0.27 0.11-0.52 0.29-0.71c0.19-0.19 0.44-0.29 0.71-0.29zm0 6h16c0.27 0 0.52 0.11 0.71 0.29c0.19 0.19 0.29 0.44 0.29 0.71c0 0.27-0.11 0.52-0.29 0.71c-0.19 0.19-0.44 0.29-0.71 0.29h-16c-0.27 0-0.52-0.11-0.71-0.29c-0.19-0.19-0.29-0.44-0.29-0.71c0-0.27 0.11-0.52 0.29-0.71c0.19-0.19 0.44-0.29 0.71-0.29zm0 6h16c0.27 0 0.52 0.11 0.71 0.29c0.19 0.19 0.29 0.44 0.29 0.71c0 0.27-0.11 0.52-0.29 0.71c-0.19 0.19-0.44 0.29-0.71 0.29h-16c-0.27 0-0.52-0.11-0.71-0.29c-0.19-0.19-0.29-0.44-0.29-0.71c0-0.27 0.11-0.52 0.29-0.71c0.19-0.19 0.44-0.29 0.71-0.29z" />
</svg>